{
    "asset" : {
        "generator" : "Khronos glTF Blender I/O v1.4.40",
        "version" : "2.0"
    },
    "scene" : 0,
    "scenes" : [
        {
            "name" : "Scene",
            "nodes" : [
                0,
                1,
                2
            ]
        }
    ],
    "nodes" : [
        {
            "name" : "Light",
            "rotation" : [
                0.16907575726509094,
                0.7558803558349609,
                -0.27217137813568115,
                0.570947527885437
            ],
            "translation" : [
                4.076245307922363,
                5.903861999511719,
                -1.0054539442062378
            ]
        },
        {
            "name" : "Camera",
            "rotation" : [
                0.483536034822464,
                0.33687159419059753,
                -0.20870360732078552,
                0.7804827094078064
            ],
            "translation" : [
                7.358891487121582,
                4.958309173583984,
                6.925790786743164
            ]
        },
        {
            "mesh" : 0,
            "name" : "terapiyo-18-small-08-3DBulder-fixed-07"
        }
    ],
    "materials" : [
        {
            "doubleSided" : true,
            "name" : "\u30de\u30c6\u30ea\u30a2\u30eb.\u8cb4",
            "pbrMetallicRoughness" : {
                "baseColorFactor" : [
                    0.7985382676124573,
                    0.8000000715255737,
                    0.2531273365020752,
                    1
                ],
                "metallicFactor" : 0,
                "roughnessFactor" : 0.4000000059604645
            }
        },
        {
            "doubleSided" : true,
            "name" : "\u30de\u30c6\u30ea\u30a2\u30eb.\u9ec4\u7dd1",
            "pbrMetallicRoughness" : {
                "baseColorFactor" : [
                    0.18372508883476257,
                    0.8000000715255737,
                    0.013344861567020416,
                    1
                ],
                "metallicFactor" : 0,
                "roughnessFactor" : 0.4000000059604645
            }
        },
        {
            "doubleSided" : true,
            "name" : "\u30de\u30c6\u30ea\u30a2\u30eb.\u30aa\u30ec\u30f3\u30b8",
            "pbrMetallicRoughness" : {
                "baseColorFactor" : [
                    1,
                    0.3185468018054962,
                    0,
                    1
                ],
                "metallicFactor" : 0,
                "roughnessFactor" : 0.4000000059604645
            }
        },
        {
            "doubleSided" : true,
            "name" : "\u30de\u30c6\u30ea\u30a2\u30eb.\u767d",
            "pbrMetallicRoughness" : {
                "baseColorFactor" : [
                    1,
                    1,
                    1,
                    1
                ],
                "metallicFactor" : 0,
                "roughnessFactor" : 0.4000000059604645
            }
        },
        {
            "doubleSided" : true,
            "name" : "\u30de\u30c6\u30ea\u30a2\u30eb.\u9ed2",
            "pbrMetallicRoughness" : {
                "baseColorFactor" : [
                    0,
                    0,
                    0,
                    1
                ],
                "metallicFactor" : 0,
                "roughnessFactor" : 0.4000000059604645
            }
        }
    ],
    "meshes" : [
        {
            "name" : "terapiyo-18-small-08-3DBulder-fixed-07",
            "primitives" : [
                {
                    "attributes" : {
                        "POSITION" : 0,
                        "NORMAL" : 1,
                        "COLOR_0" : 2
                    },
                    "indices" : 3,
                    "material" : 0
                },
                {
                    "attributes" : {
                        "POSITION" : 4,
                        "NORMAL" : 5,
                        "COLOR_0" : 6
                    },
                    "indices" : 7,
                    "material" : 1
                },
                {
                    "attributes" : {
                        "POSITION" : 8,
                        "NORMAL" : 9,
                        "COLOR_0" : 10
                    },
                    "indices" : 11,
                    "material" : 2
                },
                {
                    "attributes" : {
                        "POSITION" : 12,
                        "NORMAL" : 13,
                        "COLOR_0" : 14
                    },
                    "indices" : 15,
                    "material" : 3
                },
                {
                    "attributes" : {
                        "POSITION" : 16,
                        "NORMAL" : 17,
                        "COLOR_0" : 18
                    },
                    "indices" : 19,
                    "material" : 4
                }
            ]
        }
    ],
    "accessors" : [
        {
            "bufferView" : 0,
            "componentType" : 5126,
            "count" : 2318,
            "max" : [
                13.202408790588379,
                36.4223518371582,
                17.301380157470703
            ],
            "min" : [
                -13.313015937805176,
                1.6718693971633911,
                -17.14340591430664
            ],
            "type" : "VEC3"
        },
        {
            "bufferView" : 1,
            "componentType" : 5126,
            "count" : 2318,
            "type" : "VEC3"
        },
        {
            "bufferView" : 2,
            "componentType" : 5123,
            "count" : 2318,
            "normalized" : true,
            "type" : "VEC4"
        },
        {
            "bufferView" : 3,
            "componentType" : 5123,
            "count" : 10086,
            "type" : "SCALAR"
        },
        {
            "bufferView" : 4,
            "componentType" : 5126,
            "count" : 1137,
            "max" : [
                12.216839790344238,
                3.313291549682617,
                12.538385391235352
            ],
            "min" : [
                -12.95103931427002,
                0.14871609210968018,
                -12.627704620361328
            ],
            "type" : "VEC3"
        },
        {
            "bufferView" : 5,
            "componentType" : 5126,
            "count" : 1137,
            "type" : "VEC3"
        },
        {
            "bufferView" : 6,
            "componentType" : 5123,
            "count" : 1137,
            "normalized" : true,
            "type" : "VEC4"
        },
        {
            "bufferView" : 7,
            "componentType" : 5123,
            "count" : 1299,
            "type" : "SCALAR"
        },
        {
            "bufferView" : 8,
            "componentType" : 5126,
            "count" : 11,
            "max" : [
                11.301156044006348,
                15.976970672607422,
                3.39050030708313
            ],
            "min" : [
                8.149123191833496,
                11.62075138092041,
                -3.2468676567077637
            ],
            "type" : "VEC3"
        },
        {
            "bufferView" : 9,
            "componentType" : 5126,
            "count" : 11,
            "type" : "VEC3"
        },
        {
            "bufferView" : 10,
            "componentType" : 5123,
            "count" : 11,
            "normalized" : true,
            "type" : "VEC4"
        },
        {
            "bufferView" : 11,
            "componentType" : 5123,
            "count" : 36,
            "type" : "SCALAR"
        },
        {
            "bufferView" : 12,
            "componentType" : 5126,
            "count" : 908,
            "max" : [
                12.184584617614746,
                28.21954917907715,
                14.108129501342773
            ],
            "min" : [
                -12.311318397521973,
                18.31546401977539,
                -13.93582534790039
            ],
            "type" : "VEC3"
        },
        {
            "bufferView" : 13,
            "componentType" : 5126,
            "count" : 908,
            "type" : "VEC3"
        },
        {
            "bufferView" : 14,
            "componentType" : 5123,
            "count" : 908,
            "normalized" : true,
            "type" : "VEC4"
        },
        {
            "bufferView" : 15,
            "componentType" : 5123,
            "count" : 1152,
            "type" : "SCALAR"
        },
        {
            "bufferView" : 16,
            "componentType" : 5126,
            "count" : 3970,
            "max" : [
                12.23117733001709,
                28.21954917907715,
                9.235828399658203
            ],
            "min" : [
                -3.380258321762085,
                1.6718693971633911,
                -9.07069206237793
            ],
            "type" : "VEC3"
        },
        {
            "bufferView" : 17,
            "componentType" : 5126,
            "count" : 3970,
            "type" : "VEC3"
        },
        {
            "bufferView" : 18,
            "componentType" : 5123,
            "count" : 3970,
            "normalized" : true,
            "type" : "VEC4"
        },
        {
            "bufferView" : 19,
            "componentType" : 5123,
            "count" : 4341,
            "type" : "SCALAR"
        }
    ],
    "bufferViews" : [
        {
            "buffer" : 0,
            "byteLength" : 27816,
            "byteOffset" : 0
        },
        {
            "buffer" : 0,
            "byteLength" : 27816,
            "byteOffset" : 27816
        },
        {
            "buffer" : 0,
            "byteLength" : 18544,
            "byteOffset" : 55632
        },
        {
            "buffer" : 0,
            "byteLength" : 20172,
            "byteOffset" : 74176
        },
        {
            "buffer" : 0,
            "byteLength" : 13644,
            "byteOffset" : 94348
        },
        {
            "buffer" : 0,
            "byteLength" : 13644,
            "byteOffset" : 107992
        },
        {
            "buffer" : 0,
            "byteLength" : 9096,
            "byteOffset" : 121636
        },
        {
            "buffer" : 0,
            "byteLength" : 2598,
            "byteOffset" : 130732
        },
        {
            "buffer" : 0,
            "byteLength" : 132,
            "byteOffset" : 133332
        },
        {
            "buffer" : 0,
            "byteLength" : 132,
            "byteOffset" : 133464
        },
        {
            "buffer" : 0,
            "byteLength" : 88,
            "byteOffset" : 133596
        },
        {
            "buffer" : 0,
            "byteLength" : 72,
            "byteOffset" : 133684
        },
        {
            "buffer" : 0,
            "byteLength" : 10896,
            "byteOffset" : 133756
        },
        {
            "buffer" : 0,
            "byteLength" : 10896,
            "byteOffset" : 144652
        },
        {
            "buffer" : 0,
            "byteLength" : 7264,
            "byteOffset" : 155548
        },
        {
            "buffer" : 0,
            "byteLength" : 2304,
            "byteOffset" : 162812
        },
        {
            "buffer" : 0,
            "byteLength" : 47640,
            "byteOffset" : 165116
        },
        {
            "buffer" : 0,
            "byteLength" : 47640,
            "byteOffset" : 212756
        },
        {
            "buffer" : 0,
            "byteLength" : 31760,
            "byteOffset" : 260396
        },
        {
            "buffer" : 0,
            "byteLength" : 8682,
            "byteOffset" : 292156
        }
    ],
    "buffers" : [
        {
            "byteLength" : 300840,
            "uri" : "data:application/octet-stream;base64,"
        }
    ]
}
